<svg width="32" height="32" viewBox="0 0 32 32" fill="none" xmlns="http://www.w3.org/2000/svg">
<path d="M31.1663 18.1666C31.1663 21.6144 29.7967 24.921 27.3587 27.359C24.9208 29.797 21.6142 31.1666 18.1663 31.1666H2.45801C2.02703 31.1666 1.61371 30.9954 1.30896 30.6906C1.00421 30.3859 0.833008 29.9726 0.833008 29.5416C0.833008 29.1106 1.00421 28.6973 1.30896 28.3925C1.61371 28.0878 2.02703 27.9166 2.45801 27.9166H18.1663C20.7522 27.9166 23.2322 26.8894 25.0606 25.0609C26.8891 23.2324 27.9163 20.7525 27.9163 18.1666C27.9163 15.5807 26.8891 13.1008 25.0606 11.2723C23.2322 9.44382 20.7522 8.41659 18.1663 8.41659H6.37967L7.93967 9.97659C8.24398 10.2813 8.41491 10.6943 8.41491 11.1249C8.41491 11.5556 8.24398 11.9686 7.93967 12.2733C7.63499 12.5776 7.22197 12.7485 6.79134 12.7485C6.36071 12.7485 5.9477 12.5776 5.64301 12.2733L1.30967 7.93993C1.00536 7.63524 0.834438 7.22222 0.834438 6.79159C0.834438 6.36097 1.00536 5.94795 1.30967 5.64326L5.64301 1.30993C5.79178 1.15027 5.97118 1.02222 6.17051 0.9334C6.36984 0.844584 6.58502 0.796827 6.80321 0.792978C7.0214 0.789128 7.23813 0.829264 7.44047 0.910993C7.64281 0.992722 7.82662 1.11437 7.98092 1.26868C8.13523 1.42298 8.25688 1.60679 8.33861 1.80913C8.42034 2.01147 8.46047 2.2282 8.45662 2.44639C8.45277 2.66458 8.40502 2.87976 8.3162 3.07909C8.22738 3.27842 8.09933 3.45782 7.93967 3.60659L6.37967 5.16659H18.1663C21.6142 5.16659 24.9208 6.53623 27.3587 8.97421C29.7967 11.4122 31.1663 14.7188 31.1663 18.1666Z" fill="#4B4B4B"/>
</svg>
